<?xml version="1.0" encoding="utf-8"?>
<!-- Svg Vector Icons : http://www.onlinewebfonts.com/icon -->
<!DOCTYPE svg PUBLIC "-//W3C//DTD SVG 1.1//EN" "http://www.w3.org/Graphics/SVG/1.1/DTD/svg11.dtd">
<svg version="1.1" xmlns="http://www.w3.org/2000/svg" xmlns:xlink="http://www.w3.org/1999/xlink" x="0px" y="0px" viewBox="0 0 1000 1000" enable-background="new 0 0 1000 1000" xml:space="preserve">
<metadata> Svg Vector Icons : http://www.onlinewebfonts.com/icon </metadata>
<g><g transform="translate(0.000000,511.000000) scale(0.100000,-0.100000)"><path d="M3941.5,4939l-70.4-70.4v-768.5v-768.5h-544.8c-300.4,0-600.7-10.4-669.1-22.8c-368.7-66.3-681.5-339.7-822.4-718.8c-39.4-107.7-43.5-169.9-51.8-733.3l-8.3-617.3h-766.4H241.9l-70.4-70.4c-78.7-78.7-89.1-149.2-35.2-240.3c18.7-33.1,55.9-68.3,82.9-80.8c33.1-14.5,306.6-22.8,803.7-22.8h756.1V110.5v-714.6h-768.5H241.9l-70.4-70.4c-95.3-95.3-95.3-178.1,0-273.4l70.4-70.4h768.5h768.5v-544.8c0-300.4,10.4-600.7,22.8-669.1c49.7-275.5,261-582.1,497.1-718.8c236.1-138.8,281.7-145,957-155.4l615.2-8.3v-766.4v-766.4l70.4-70.4c49.7-51.8,89.1-70.4,136.7-70.4s87,18.7,136.7,70.4l70.4,70.4v768.5v768.5H5000h714.7v-768.5v-768.5l70.4-70.4c95.3-95.3,178.1-95.3,273.4,0l70.4,70.4v768.5v768.5h544.8c300.4,0,600.7,10.4,669.1,22.8c190.6,33.2,408.1,149.1,546.9,287.9c134.6,134.6,207.1,246.5,273.4,426.7c41.4,113.9,45.6,165.7,53.8,737.4l8.3,617.3h766.4h766.4l70.4,70.4c78.7,78.7,89.1,149.1,35.2,240.3c-18.6,33.1-55.9,68.3-82.9,80.8c-33.1,14.5-306.6,22.8-803.7,22.8h-756.1v714.6v714.6h768.5h768.5l70.4,70.4c95.3,95.3,95.3,178.1,0,273.4l-70.4,70.4h-768.5h-768.5v544.8c0,300.4-10.4,600.7-22.8,669.1c-49.7,275.5-261,582.1-497.1,718.8c-236.2,138.8-281.7,145-954.9,155.4l-617.3,8.3v766.4v766.4l-70.4,70.4c-49.7,49.7-89.1,70.4-136.7,70.4s-84.9-20.7-136.7-70.4l-70.4-70.4v-768.5v-768.5H5000h-714.6v758.1c0,669.1-4.1,764.4-35.2,816.1C4179.7,5028.1,4045.1,5042.6,3941.5,4939z M7003.1,2668.7c250.6-76.6,459.9-269.3,561.4-517.9L7610,2037V100.2v-1936.8l-45.6-113.9c-101.5-248.6-310.7-441.2-561.4-517.9c-128.4-39.4-198.9-41.4-1992.7-41.4c-1793.9,0-1864.3,2.1-1992.7,41.4c-250.6,76.6-459.8,269.3-561.4,517.9l-45.6,113.9V100.2V2037l45.6,113.9c99.4,244.4,310.7,439.2,555.1,517.9c118.1,37.3,211.3,39.4,1990.7,39.4C6806.3,2710.2,6874.7,2708.1,7003.1,2668.7z"/><path d="M3409.1,2211c-198.8-47.6-377-194.7-468.1-389.4l-53.9-116v-1595v-1595l53.9-116c70.4-149.1,198.8-277.6,348-348l116-53.8h1595h1595l116,53.8c149.1,70.4,277.6,198.9,348,348l53.8,116v1595v1595l-53.8,116c-70.4,149.1-198.9,277.6-348,348l-116,53.9l-1553.6,4.2C4175.6,2229.6,3452.6,2221.3,3409.1,2211z"/></g></g>
</svg>