<svg id="Layer_1" data-name="Layer 1" xmlns="http://www.w3.org/2000/svg" xmlns:xlink="http://www.w3.org/1999/xlink" width="204.51mm" height="62.27mm" viewBox="0 0 579.71 176.51"><defs><style>.cls-1{fill:none;}.cls-2{fill:#1b75bc;}.cls-3{clip-path:url(#clip-path);}.cls-4{fill:#f1f2f2;}</style><clipPath id="clip-path"><rect class="cls-1" width="579.71" height="172.6"/></clipPath></defs><title>logo</title><rect class="cls-2" width="579.71" height="176.51"/><g class="cls-3"><path class="cls-4" d="M53.43,119.69Q40.8,107.12,40.8,88.19q.06-18.51,12.66-31.14T84.69,44.42q18.81,0,32.28,11.72L105.26,69a32.47,32.47,0,0,0-20.57-7Q72.85,62,65.62,69.33T58.38,88.08q.06,12.24,7.32,19.45t19.11,7.21q9.48,0,14.59-3.75V95.93L87.68,96V79.58H117v41q-13.41,11.73-32.28,11.72-18.63-.06-31.26-12.62"/><path class="cls-4" d="M130,132.31,165.2,44.42h17.57l35.1,87.84-18.69.05-5.27-13.47H154.06l-5.27,13.47Zm44.41-64.45-13.35,33.4h26.36Z"/><polygon class="cls-4" points="231 132.31 231 44.42 236.86 44.42 274.94 87.78 313.09 44.42 318.95 44.42 318.95 132.31 301.37 132.31 301.31 81.34 274.94 110.63 248.58 81.34 248.58 132.31 231 132.31"/><path class="cls-4" d="M398.87,85.91q11.53,7.73,12.24,20.1-1.17,24.84-26.54,26.3l-49.45-.05V44.42h46.64Q404,45.71,405.2,70.26q-.42,11.73-6.33,15.65m-46.11-6.27h24.6q10.61-.18,10.9-11-.28-6.45-10.72-6.8H352.76Zm0,38.9h28.71q12.36-.17,12.65-12.71-.28-8.44-12.48-8.79H352.76Z"/><rect class="cls-4" x="428.63" y="44.39" width="17.52" height="87.95"/><polygon class="cls-4" points="535.51 44.42 535.51 60.83 506.21 60.83 506.21 132.31 488.63 132.31 488.63 60.83 459.34 60.83 459.34 44.42 535.51 44.42"/></g></svg>